<svg xmlns="http://www.w3.org/2000/svg" width="25.097" height="24.297" viewBox="0 0 25.097 24.297"><path d="M24.783,16.745a1.2,1.2,0,0,0-.1-1.712L13.468,5.218a1.4,1.4,0,0,0-1.824.021L.39,15.556a1.19,1.19,0,0,0-.054,1.71l.282.294a1.231,1.231,0,0,0,1.689.129l.841-.753V27.963a1.224,1.224,0,0,0,1.224,1.224H8.76a1.224,1.224,0,0,0,1.224-1.224V20.248h5.6v7.715a1.157,1.157,0,0,0,1.15,1.224h4.649A1.224,1.224,0,0,0,22.6,27.963V17.091l.519.455c.286.251.887.05,1.342-.451Z" transform="translate(0 -4.89)" style="fill:#c2d4ef"/></svg>