<svg xmlns="http://www.w3.org/2000/svg"  style="fill:#137E77" width="14.711" height="20.404"><defs/><path d="M12.76 8.677V5.446a5.418 5.418 0 0 0-1.618-3.893A5.245 5.245 0 0 0 7.418 0h-.069a5.433 5.433 0 0 0-5.4 5.446v3.231A2.206 2.206 0 0 0 0 10.9v7.258A2.236 2.236 0 0 0 2.219 20.4h10.273a2.236 2.236 0 0 0 2.219-2.249V10.9a2.217 2.217 0 0 0-1.951-2.223ZM2.807 5.446A4.578 4.578 0 0 1 7.353.852a4.48 4.48 0 0 1 3.175 1.306 4.581 4.581 0 0 1 1.358 3.287v3.236h-.952V5.446a3.645 3.645 0 0 0-1.077-2.617A3.507 3.507 0 0 0 7.384 1.8h-.026a3.622 3.622 0 0 0-3.6 3.642v3.24h-.952Zm7.271 0v3.235h-5.45V5.446a2.755 2.755 0 0 1 2.734-2.777h.026a2.653 2.653 0 0 1 1.873.779 2.788 2.788 0 0 1 .817 1.998Zm3.806 12.721a1.372 1.372 0 0 1-1.371 1.371H2.236a1.372 1.372 0 0 1-1.371-1.371v-7.25a1.372 1.372 0 0 1 1.371-1.371h10.278a1.372 1.372 0 0 1 1.371 1.371Z" class="a"/><path d="M8.85 14.274a1.559 1.559 0 1 0-1.929 1.929v1.211a.433.433 0 0 0 .865 0v-1.211a1.555 1.555 0 0 0 1.064-1.929Zm-1.5 1.125a.7.7 0 1 1 .7-.7.7.7 0 0 1-.696.7Z" class="a"/></svg>