<svg xmlns="http://www.w3.org/2000/svg" width="21.549" height="25.829">
  <g fill="#0061ef" data-name="Group 368">
    <path d="M10.611 12.442a6.019 6.019 0 0 0 4.4-1.823 6.019 6.019 0 0 0 1.822-4.4 6.02 6.02 0 0 0-1.823-4.4 6.22 6.22 0 0 0-8.8 0 6.019 6.019 0 0 0-1.823 4.4 6.019 6.019 0 0 0 1.823 4.4 6.021 6.021 0 0 0 4.401 1.823Zm0 0" data-name="Path 528"/>
    <path d="M21.5 19.86a15.366 15.366 0 0 0-.209-1.632 12.858 12.858 0 0 0-.4-1.641 8.1 8.1 0 0 0-.675-1.53 5.775 5.775 0 0 0-1.017-1.326 4.485 4.485 0 0 0-1.461-.918 5.05 5.05 0 0 0-1.865-.338 1.893 1.893 0 0 0-1.011.429c-.3.2-.658.426-1.053.679a6.036 6.036 0 0 1-1.363.6 5.293 5.293 0 0 1-3.334 0 6.022 6.022 0 0 1-1.362-.6c-.392-.25-.747-.479-1.054-.679a1.891 1.891 0 0 0-1.011-.429 5.044 5.044 0 0 0-1.865.338 4.481 4.481 0 0 0-1.461.918 5.775 5.775 0 0 0-1.022 1.329 8.12 8.12 0 0 0-.675 1.531 12.888 12.888 0 0 0-.4 1.641 15.31 15.31 0 0 0-.21 1.628C.017 20.36 0 20.869 0 21.387a4.289 4.289 0 0 0 1.274 3.245 4.586 4.586 0 0 0 3.282 1.2h12.437a4.584 4.584 0 0 0 3.282-1.2 4.287 4.287 0 0 0 1.274-3.245c0-.521-.018-1.034-.049-1.527Zm0 0" data-name="Path 527"/>
  </g>
</svg>
