<svg width="120" height="120" viewBox="0 0 120 120" fill="none" xmlns="http://www.w3.org/2000/svg">
<g clip-path="url(#clip0_6_142)">
<path d="M110 90L110 27.5C110 13.6929 98.8071 2.5 85 2.5L35 2.5C21.1929 2.5 10 13.6929 10 27.5L10 90C10 103.807 21.1929 115 35 115L85 115C98.8071 115 110 103.807 110 90Z" fill="#ACDCC2AA" stroke="#AAAACC"/>
<path d="M115 87.5L115 50C115 43.0964 111.082 37.5 106.25 37.5C101.418 37.5 97.5 43.0964 97.5 50L97.5 87.5C97.5 94.4036 101.418 100 106.25 100C111.082 100 115 94.4036 115 87.5Z" fill="#ACDCC2" stroke="#AAAACC"/>
<path d="M22.5 87.5L22.5 50C22.5 43.0964 18.5825 37.5 13.75 37.5C8.91751 37.5 5.00001 43.0964 5.00001 50L5.00001 87.5C5.00001 94.4036 8.91751 100 13.75 100C18.5825 100 22.5 94.4036 22.5 87.5Z" fill="#ACDCC2" stroke="#AAAACC"/>
<path d="M102.5 120C110.784 120 117.5 113.284 117.5 105C117.5 96.7157 110.784 90 102.5 90L17.5 90C9.21572 90 2.49999 96.7157 2.49999 105C2.49999 113.284 9.21572 120 17.5 120L102.5 120Z" fill="#ACDCC2" stroke="#AAAACC"/>
</g>
<defs>
<clipPath id="clip0_6_142">
<rect width="120" height="120" fill="white" transform="matrix(0 1 -1 0 120 0)"/>
</clipPath>
</defs>
</svg>

