<svg width="121" height="121" viewBox="0 0 121 121" fill="none" xmlns="http://www.w3.org/2000/svg">
<g clip-path="url(#clip0_103_128)">
<path d="M110.5 90.5L110.5 28C110.5 14.1929 99.3071 3 85.5 3L35.5 3C21.6929 3 10.5 14.1929 10.5 28L10.5 90.5C10.5 104.307 21.6929 115.5 35.5 115.5L85.5 115.5C99.3071 115.5 110.5 104.307 110.5 90.5Z" fill="#F7F6F9" stroke="#666668" stroke-width="2"/>
<path d="M115.5 88L115.5 50.5C115.5 43.5964 111.582 38 106.75 38C101.918 38 98 43.5964 98 50.5L98 88C98 94.9036 101.918 100.5 106.75 100.5C111.582 100.5 115.5 94.9036 115.5 88Z" fill="#F7F6F9" stroke="#666668" stroke-width="2"/>
<path d="M23 88L23 50.5C23 43.5964 19.0825 38 14.25 38C9.41751 38 5.50001 43.5964 5.50001 50.5L5.50001 88C5.50001 94.9036 9.41751 100.5 14.25 100.5C19.0825 100.5 23 94.9036 23 88Z" fill="#F7F6F9" stroke="#666668" stroke-width="2"/>
<path d="M103 120.5C111.284 120.5 118 113.784 118 105.5C118 97.2157 111.284 90.5 103 90.5L18 90.5C9.71572 90.5 2.99999 97.2157 2.99999 105.5C2.99999 113.784 9.71572 120.5 18 120.5L103 120.5Z" fill="#F7F6F9" stroke="#666668" stroke-width="2"/>
<path d="M46.3824 65.7942C46.3824 65.7942 51.6765 72.853 60.5 72.853C69.3236 72.853 74.6177 65.7942 74.6177 65.7942" stroke="#666668" stroke-width="2" stroke-linecap="round" stroke-linejoin="round"/>
<path d="M52.8 48.2C52.8 48.2 51.9 47 50.4 47C48.9 47 48 48.2 48 48.2" stroke="#666668" stroke-width="2" stroke-linecap="round" stroke-linejoin="round"/>
<path d="M73.8 48.2C73.8 48.2 72.9 47 71.4 47C69.9 47 69 48.2 69 48.2" stroke="#666668" stroke-width="2" stroke-linecap="round" stroke-linejoin="round"/>
</g>
<defs>
<clipPath id="clip0_103_128">
<rect width="120" height="120" fill="white" transform="matrix(0 1 -1 0 120.5 0.5)"/>
</clipPath>
</defs>
</svg>

