<svg xmlns="http://www.w3.org/2000/svg" style="fill:#017bef" width="16.23" height="19.453"><defs/><path d="M7.992 9.371A4.534 4.534 0 0 0 11.305 8a4.534 4.534 0 0 0 1.37-3.315 4.534 4.534 0 0 0-1.37-3.313 4.684 4.684 0 0 0-6.626 0 4.534 4.534 0 0 0-1.373 3.313A4.534 4.534 0 0 0 4.675 8a4.535 4.535 0 0 0 3.317 1.371ZM5.485 2.179a3.544 3.544 0 0 1 5.013 0 3.387 3.387 0 0 1 1.039 2.507 3.387 3.387 0 0 1-1.039 2.507 3.544 3.544 0 0 1-5.013 0 3.387 3.387 0 0 1-1.039-2.507 3.387 3.387 0 0 1 1.039-2.507ZM16.19 14.958a11.572 11.572 0 0 0-.158-1.229 9.685 9.685 0 0 0-.3-1.236 6.105 6.105 0 0 0-.508-1.153 4.345 4.345 0 0 0-.766-1 3.378 3.378 0 0 0-1.1-.691 3.8 3.8 0 0 0-1.4-.254 1.426 1.426 0 0 0-.762.323c-.228.149-.5.321-.793.511a4.546 4.546 0 0 1-1.026.452 3.986 3.986 0 0 1-2.511 0 4.531 4.531 0 0 1-1.026-.452c-.3-.189-.562-.361-.794-.512a1.424 1.424 0 0 0-.761-.323 3.8 3.8 0 0 0-1.4.255 3.375 3.375 0 0 0-1.1.691 4.346 4.346 0 0 0-.766 1A6.116 6.116 0 0 0 .5 12.493a9.708 9.708 0 0 0-.3 1.236 11.493 11.493 0 0 0-.158 1.23c-.026.371-.039.758-.039 1.149a3.23 3.23 0 0 0 .959 2.444 3.453 3.453 0 0 0 2.472.9H12.8a3.454 3.454 0 0 0 2.472-.9 3.229 3.229 0 0 0 .96-2.444 17.81 17.81 0 0 0-.042-1.15Zm-1.706 2.767a2.325 2.325 0 0 1-1.686.588H3.432a2.325 2.325 0 0 1-1.686-.587 2.109 2.109 0 0 1-.605-1.618c0-.365.012-.724.036-1.07a10.368 10.368 0 0 1 .142-1.107 8.561 8.561 0 0 1 .266-1.09A4.979 4.979 0 0 1 2 11.904a3.221 3.221 0 0 1 .563-.738 2.241 2.241 0 0 1 .732-.455 2.623 2.623 0 0 1 .9-.173c.04.021.111.062.226.137.234.153.5.327.8.518a5.649 5.649 0 0 0 1.288.576 5.125 5.125 0 0 0 3.212 0 5.654 5.654 0 0 0 1.289-.576c.306-.2.568-.365.8-.517.115-.075.186-.116.226-.137a2.625 2.625 0 0 1 .9.173 2.244 2.244 0 0 1 .732.455 3.212 3.212 0 0 1 .563.738 4.963 4.963 0 0 1 .414.937 8.542 8.542 0 0 1 .266 1.09 10.455 10.455 0 0 1 .142 1.107c.024.344.036.7.037 1.069a2.109 2.109 0 0 1-.606 1.617Zm0 0" class="a"/></svg>